<svg width="150" height="150" viewBox="0 0 150 150" fill="none" xmlns="http://www.w3.org/2000/svg">
<path d="M129.786 0H20.2135C9.05053 0 0.000732422 9.04943 0.000732422 20.2128V129.786C0.000732422 140.95 9.05017 149.999 20.2135 149.999H74.2544L74.3465 96.3977H60.4208C58.6111 96.3977 57.1422 94.9343 57.1352 93.1246L57.0685 75.8465C57.0615 74.0269 58.5347 72.5481 60.3544 72.5481H74.2548V55.8532C74.2548 36.4788 86.0874 25.9293 103.371 25.9293H117.553C119.367 25.9293 120.839 27.4004 120.839 29.2153V43.7842C120.839 45.5983 119.368 47.069 117.555 47.0701L108.851 47.0742C99.452 47.0742 97.632 51.5405 97.632 58.0952V72.5485H118.285C120.253 72.5485 121.78 74.2669 121.548 76.2212L119.5 93.4992C119.304 95.1526 117.902 96.3984 116.237 96.3984H97.7241L97.632 150H129.787C140.95 150 150 140.951 150 129.788V20.2128C149.999 9.04943 140.95 0 129.786 0Z" fill="#FBFFFC"/>
</svg>
