<svg width="205" height="40" viewBox="0 0 205 40" fill="none" xmlns="http://www.w3.org/2000/svg">
<path d="M28.1875 33.7891C28.1875 34.9453 26.3828 35.6953 22.7734 36.0391C22.6484 36.2891 22.6484 36.6562 22.7734 37.1406C25.4297 37.0469 28.1484 37 30.9297 37C34.2578 37 37.4609 37.0469 40.5391 37.1406C40.6641 36.8594 40.6641 36.4922 40.5391 36.0391C35.3516 35.7266 32.7422 34.9766 32.7109 33.7891C32.5391 29.9141 32.4531 25.2734 32.4531 19.8672C32.4531 14.4297 32.5391 9.77344 32.7109 5.89844C32.7422 4.71094 35.3516 3.96094 40.5391 3.64844C40.6953 3.25781 40.6953 2.89062 40.5391 2.54688C36.4297 2.67188 33.2266 2.73438 30.9297 2.73438C29.0078 2.73438 26.2891 2.67188 22.7734 2.54688C22.6797 2.92188 22.6797 3.28906 22.7734 3.64844C26.3516 3.99219 28.1562 4.74219 28.1875 5.89844C28.2812 8.77344 28.3594 13.1094 28.4219 18.9062C25.5469 19 22.8281 19.0469 20.2656 19.0469C15.9844 19.0469 12.8828 19.0156 10.9609 18.9531C10.9609 13.7031 11.0547 9.35156 11.2422 5.89844C11.2734 4.71094 13.8828 3.96094 19.0703 3.64844C19.1641 3.35156 19.1641 2.98438 19.0703 2.54688C14.9766 2.67188 11.7734 2.73438 9.46094 2.73438C7.55469 2.73438 4.83594 2.67188 1.30469 2.54688C1.17969 2.82812 1.17969 3.19531 1.30469 3.64844C4.89844 3.99219 6.71094 4.74219 6.74219 5.89844C6.89844 9.57031 6.97656 13.9375 6.97656 19C6.97656 23.9531 6.88281 28.8828 6.69531 33.7891C6.66406 34.9453 4.85156 35.6953 1.25781 36.0391C1.13281 36.2891 1.13281 36.6562 1.25781 37.1406C3.91406 37.0469 6.63281 37 9.41406 37C12.7422 37 15.9453 37.0469 19.0234 37.1406C19.1484 36.8906 19.1484 36.5234 19.0234 36.0391C13.8359 35.7266 11.2266 34.9766 11.1953 33.7891C11.0391 29.0859 10.9609 24.6875 10.9609 20.5938C14.8047 20.5156 17.9062 20.4766 20.2656 20.4766C22.8281 20.4766 25.5469 20.5312 28.4219 20.6406C28.3906 24.125 28.3125 28.5078 28.1875 33.7891ZM27.2266 33.7891C27.3516 27.5703 27.4297 23.6484 27.4609 22.0234C24.3984 21.9609 22 21.9297 20.2656 21.9297C18.9219 21.9297 17.6641 21.9375 16.4922 21.9531C15.3359 21.9688 14.6953 21.9766 14.5703 21.9766C14.5703 25.5859 14.6484 29.5078 14.8047 33.7422C14.8047 33.8359 14.8359 33.9297 14.8984 34.0234C14.9609 34.1172 15.0703 34.1953 15.2266 34.2578C15.3828 34.3203 15.5391 34.3906 15.6953 34.4688C15.8672 34.5312 16.0781 34.5938 16.3281 34.6562C16.5938 34.7188 16.8281 34.7734 17.0312 34.8203C17.2344 34.8672 17.4922 34.9141 17.8047 34.9609C18.1328 35.0078 18.3906 35.0469 18.5781 35.0781C18.7812 35.1094 19.0469 35.1406 19.375 35.1719C19.7188 35.2031 19.9531 35.2344 20.0781 35.2656C20.3281 36.1406 20.2812 37.1016 19.9375 38.1484C14.1719 38.0234 10.6641 37.9609 9.41406 37.9609C8.58594 37.9609 5.64844 38.0234 0.601562 38.1484C0.210938 37.0703 0.210938 36.0625 0.601562 35.125C3.99219 34.7812 5.70312 34.3203 5.73438 33.7422C5.92188 28.8359 6.01562 23.9219 6.01562 19C6.01562 13.9688 5.9375 9.61719 5.78125 5.94531C5.75 5.36719 4.00781 4.90625 0.554688 4.5625C0.289062 3.5625 0.320312 2.55469 0.648438 1.53906C2.02344 1.53906 3.88281 1.57812 6.22656 1.65625C8.58594 1.73438 10.2266 1.77344 11.1484 1.77344C11.8203 1.77344 13.1172 1.75781 15.0391 1.72656C16.9609 1.69531 18.625 1.67969 20.0312 1.67969C20.3125 2.57031 20.3281 3.53125 20.0781 4.5625C16.625 4.90625 14.8828 5.36719 14.8516 5.94531C14.6641 10.2578 14.5703 14.2891 14.5703 18.0391C16.0703 18.1328 17.9688 18.1484 20.2656 18.0859L27.4609 17.9922C27.3984 12.8984 27.3203 8.88281 27.2266 5.94531C27.1953 5.36719 25.4531 4.90625 22 4.5625C21.7188 3.46875 21.75 2.46094 22.0938 1.53906C24.3594 1.69531 27.4297 1.77344 31.3047 1.77344C32.0391 1.77344 33.5312 1.75781 35.7812 1.72656C38.0469 1.69531 39.9453 1.67969 41.4766 1.67969C41.7734 2.57031 41.7969 3.53125 41.5469 4.5625C38.0781 4.90625 36.3281 5.36719 36.2969 5.94531C36.1406 9.82031 36.0625 14.4609 36.0625 19.8672C36.0625 25.2422 36.1406 29.8672 36.2969 33.7422C36.3281 34.3203 38.0781 34.7812 41.5469 35.125C41.7969 36.125 41.7578 37.1328 41.4297 38.1484C36.3828 38.0234 33.4453 37.9609 32.6172 37.9609C31.3672 37.9609 27.8594 38.0234 22.0938 38.1484C21.7188 37.0703 21.7188 36.0625 22.0938 35.125C25.5156 34.7812 27.2266 34.3359 27.2266 33.7891Z" fill="black"/>
<path d="M65.1953 2.73438H53.4062C51.4531 2.73438 48.7109 2.67188 45.1797 2.54688V3.64844C48.7734 3.99219 50.5859 4.74219 50.6172 5.89844C50.7734 9.57031 50.8516 13.9375 50.8516 19C50.8516 23.9531 50.7578 28.8828 50.5703 33.7891C50.5391 34.9453 48.7266 35.6953 45.1328 36.0391C45.0703 36.5859 45.0703 36.9531 45.1328 37.1406C48.1484 37.0469 55.1562 37 66.1562 37C70 37 72.8906 36.3438 74.8281 35.0312C76.7656 33.7188 78.5156 31.4609 80.0781 28.2578C79.9531 28.0078 79.6797 27.8047 79.2578 27.6484C76.4141 32.9297 71.1719 35.5703 63.5312 35.5703H55.0703C54.9141 28.7422 54.8359 23.75 54.8359 20.5938L62.4766 20.5469C63.1484 20.5469 63.7734 20.6562 64.3516 20.875C64.9453 21.0938 65.4141 21.3203 65.7578 21.5547C66.1172 21.7734 66.5312 22.2031 67 22.8438C67.4688 23.4844 67.7969 23.9531 67.9844 24.25C68.1719 24.5312 68.5 25.125 68.9688 26.0312C69.4375 26.9375 69.75 27.5234 69.9062 27.7891C70.3906 27.5859 70.6953 27.375 70.8203 27.1562C69.2578 24.5 68.4766 22.0547 68.4766 19.8203C68.4766 18.8516 68.6953 17.6719 69.1328 16.2812C69.5859 14.8906 70.1484 13.6172 70.8203 12.4609C70.6953 12.2422 70.3906 12.0391 69.9062 11.8516C69.7812 12.0703 69.5312 12.5391 69.1562 13.2578C68.7969 13.9766 68.5547 14.4453 68.4297 14.6641C68.3203 14.8672 68.0938 15.25 67.75 15.8125C67.4219 16.375 67.1641 16.75 66.9766 16.9375C66.7891 17.125 66.5078 17.4062 66.1328 17.7812C65.7734 18.1406 65.4219 18.3906 65.0781 18.5312C64.75 18.6562 64.3594 18.7734 63.9062 18.8828C63.4531 18.9922 62.9766 19.0469 62.4766 19.0469C59.1172 19.0469 56.5703 19.0156 54.8359 18.9531C54.8359 15.1719 54.9297 10.2422 55.1172 4.16406H62.5703C70.2109 4.16406 75.4531 6.80469 78.2969 12.0859C78.7188 11.9297 78.9922 11.7188 79.1172 11.4531C77.5547 8.26562 75.8047 6.01562 73.8672 4.70312C71.9297 3.39062 69.0391 2.73438 65.1953 2.73438ZM68.4297 12.625L69.4375 10.6562C70.75 11.125 71.5781 11.7266 71.9219 12.4609C71.2188 13.6797 70.625 15 70.1406 16.4219C69.6719 17.8281 69.4375 18.9609 69.4375 19.8203C69.4375 21.8984 70.2656 24.3438 71.9219 27.1562C71.5469 27.9531 70.75 28.5625 69.5312 28.9844C68.9531 28.0312 68.5312 27.2969 68.2656 26.7812C67.625 25.7188 67.1172 24.9297 66.7422 24.4141C66.3828 23.8828 65.8359 23.3516 65.1016 22.8203C64.3672 22.2891 63.5547 22.0078 62.6641 21.9766H58.4453C58.4453 25.4297 58.5078 29.6406 58.6328 34.6094H63.4844C67.4531 34.6094 70.6797 33.8359 73.1641 32.2891C75.6641 30.7266 77.5547 28.7734 78.8359 26.4297C80.1484 26.9141 80.9766 27.5234 81.3203 28.2578C79.2734 31.6484 78.0625 34.8828 77.6875 37.9609H58.2344C52.0625 37.9609 47.4766 38.0078 44.4766 38.1016C44.1484 37.0859 44.1328 36.0938 44.4297 35.125C47.8516 34.7812 49.5781 34.3203 49.6094 33.7422C49.7969 28.8359 49.8906 23.9219 49.8906 19C49.8906 13.9688 49.8125 9.61719 49.6562 5.94531C49.625 5.36719 47.8828 4.90625 44.4297 4.5625C44.1328 3.46875 44.1641 2.46094 44.5234 1.53906C49.3203 1.69531 52.5 1.77344 54.0625 1.77344H76.7266C77.1016 4.83594 78.3203 8.0625 80.3828 11.4531C80.0234 12.2031 79.1875 12.8125 77.875 13.2812C76.5938 10.9531 74.7031 9.01562 72.2031 7.46875C69.7188 5.90625 66.4922 5.125 62.5234 5.125H58.6797C58.5234 10.7344 58.4453 15.0391 58.4453 18.0391C59.4297 18.0703 60.8516 18.0859 62.7109 18.0859C64.0234 18.0859 65.0703 17.6484 65.8516 16.7734C66.6328 15.8828 67.4922 14.5 68.4297 12.625Z" fill="black"/>
<path d="M95.0547 19C95.0547 15.1562 95.1328 10.7891 95.2891 5.89844C95.3203 4.71094 97.9297 3.96094 103.117 3.64844C103.211 3.35156 103.211 2.98438 103.117 2.54688C99.0234 2.67188 95.8281 2.73438 93.5312 2.73438C91.6094 2.73438 88.8828 2.67188 85.3516 2.54688C85.2266 2.82812 85.2266 3.19531 85.3516 3.64844C88.9453 3.99219 90.7578 4.74219 90.7891 5.89844C90.9453 9.57031 91.0234 13.9375 91.0234 19C91.0234 23.9531 90.9297 28.8828 90.7422 33.7891C90.7109 34.9453 88.8984 35.6953 85.3047 36.0391C85.2109 36.4297 85.2109 36.7969 85.3047 37.1406C88.3203 37.0469 95.3281 37 106.328 37C110.078 37 112.891 36.2969 114.766 34.8906C116.641 33.4844 118.391 31.1172 120.016 27.7891C119.891 27.5234 119.617 27.3125 119.195 27.1562C118.586 28.2812 117.914 29.2812 117.18 30.1562C116.445 31.0312 115.477 31.9141 114.273 32.8047C113.07 33.6797 111.57 34.3594 109.773 34.8438C107.992 35.3281 105.969 35.5703 103.703 35.5703H95.2422C95.1172 30.0859 95.0547 24.5625 95.0547 19ZM98.6172 20.7344C98.6172 25.0156 98.6797 29.6406 98.8047 34.6094H103.656C110.594 34.6094 115.633 31.7266 118.773 25.9609C120.086 26.4453 120.914 27.0547 121.258 27.7891C119.023 31.4922 117.711 34.8828 117.32 37.9609H98.4062C92.2344 37.9609 87.6484 38.0078 84.6484 38.1016C84.3203 37.0859 84.3047 36.0938 84.6016 35.125C88.0234 34.7812 89.75 34.3203 89.7812 33.7422C89.9688 28.8359 90.0625 23.9219 90.0625 19C90.0625 13.9688 89.9844 9.61719 89.8281 5.94531C89.7969 5.36719 88.0547 4.90625 84.6016 4.5625C84.3359 3.53125 84.3672 2.52344 84.6953 1.53906C87.4141 1.69531 90.9141 1.77344 95.1953 1.77344C95.8359 1.77344 97.1172 1.75781 99.0391 1.72656C100.961 1.69531 102.641 1.67969 104.078 1.67969C104.375 2.57031 104.391 3.53125 104.125 4.5625C100.672 4.90625 98.9297 5.36719 98.8984 5.94531C98.7109 9.85156 98.6172 14.7812 98.6172 20.7344Z" fill="black"/>
<path d="M134.992 19C134.992 15.1562 135.07 10.7891 135.227 5.89844C135.258 4.71094 137.867 3.96094 143.055 3.64844C143.148 3.35156 143.148 2.98438 143.055 2.54688C138.961 2.67188 135.766 2.73438 133.469 2.73438C131.547 2.73438 128.82 2.67188 125.289 2.54688C125.164 2.82812 125.164 3.19531 125.289 3.64844C128.883 3.99219 130.695 4.74219 130.727 5.89844C130.883 9.57031 130.961 13.9375 130.961 19C130.961 23.9531 130.867 28.8828 130.68 33.7891C130.648 34.9453 128.836 35.6953 125.242 36.0391C125.148 36.4297 125.148 36.7969 125.242 37.1406C128.258 37.0469 135.266 37 146.266 37C150.016 37 152.828 36.2969 154.703 34.8906C156.578 33.4844 158.328 31.1172 159.953 27.7891C159.828 27.5234 159.555 27.3125 159.133 27.1562C158.523 28.2812 157.852 29.2812 157.117 30.1562C156.383 31.0312 155.414 31.9141 154.211 32.8047C153.008 33.6797 151.508 34.3594 149.711 34.8438C147.93 35.3281 145.906 35.5703 143.641 35.5703H135.18C135.055 30.0859 134.992 24.5625 134.992 19ZM138.555 20.7344C138.555 25.0156 138.617 29.6406 138.742 34.6094H143.594C150.531 34.6094 155.57 31.7266 158.711 25.9609C160.023 26.4453 160.852 27.0547 161.195 27.7891C158.961 31.4922 157.648 34.8828 157.258 37.9609H138.344C132.172 37.9609 127.586 38.0078 124.586 38.1016C124.258 37.0859 124.242 36.0938 124.539 35.125C127.961 34.7812 129.688 34.3203 129.719 33.7422C129.906 28.8359 130 23.9219 130 19C130 13.9688 129.922 9.61719 129.766 5.94531C129.734 5.36719 127.992 4.90625 124.539 4.5625C124.273 3.53125 124.305 2.52344 124.633 1.53906C127.352 1.69531 130.852 1.77344 135.133 1.77344C135.773 1.77344 137.055 1.75781 138.977 1.72656C140.898 1.69531 142.578 1.67969 144.016 1.67969C144.312 2.57031 144.328 3.53125 144.062 4.5625C140.609 4.90625 138.867 5.36719 138.836 5.94531C138.648 9.85156 138.555 14.7812 138.555 20.7344Z" fill="black"/>
<path d="M185.008 4.44531C183.805 4.53906 182.727 4.82812 181.773 5.3125C180.82 5.79688 179.984 6.42969 179.266 7.21094C178.547 7.97656 177.93 8.85938 177.414 9.85938C176.914 10.8438 176.5 11.8906 176.172 13C175.859 14.1094 175.625 15.2578 175.469 16.4453C175.328 17.6172 175.258 18.7734 175.258 19.9141C175.258 21.0547 175.328 22.2188 175.469 23.4062C175.625 24.5781 175.867 25.7188 176.195 26.8281C176.523 27.9375 176.938 28.9844 177.438 29.9688C177.953 30.9531 178.57 31.8281 179.289 32.5938C180.023 33.3438 180.859 33.9531 181.797 34.4219C182.75 34.8906 183.82 35.1719 185.008 35.2656C186.227 35.1719 187.312 34.8906 188.266 34.4219C189.219 33.9375 190.055 33.3203 190.773 32.5703C191.508 31.8047 192.125 30.9297 192.625 29.9453C193.141 28.9453 193.555 27.8984 193.867 26.8047C194.195 25.6953 194.43 24.5547 194.57 23.3828C194.727 22.1953 194.805 21.0391 194.805 19.9141C194.805 18.7734 194.727 17.6172 194.57 16.4453C194.43 15.2578 194.195 14.1094 193.867 13C193.555 11.875 193.141 10.8203 192.625 9.83594C192.125 8.83594 191.508 7.95312 190.773 7.1875C190.055 6.42188 189.211 5.79688 188.242 5.3125C187.289 4.82812 186.211 4.53906 185.008 4.44531ZM184.188 36.2734C182.641 36.2734 181.258 36.0469 180.039 35.5938C178.82 35.125 177.742 34.5 176.805 33.7188C175.883 32.9219 175.094 31.9922 174.438 30.9297C173.797 29.8672 173.266 28.7344 172.844 27.5312C172.438 26.3125 172.141 25.0547 171.953 23.7578C171.766 22.4453 171.672 21.1641 171.672 19.9141C171.672 18.6641 171.766 17.3906 171.953 16.0938C172.141 14.7812 172.438 13.5156 172.844 12.2969C173.25 11.0781 173.781 9.92969 174.438 8.85156C175.094 7.77344 175.883 6.83594 176.805 6.03906C177.727 5.24219 178.797 4.60938 180.016 4.14062C181.25 3.67188 182.641 3.4375 184.188 3.4375C185.609 3.4375 186.883 3.67188 188.008 4.14062C189.133 4.59375 190.117 5.22656 190.961 6.03906C191.82 6.83594 192.555 7.77344 193.164 8.85156C193.773 9.92969 194.266 11.0781 194.641 12.2969C195.031 13.5156 195.312 14.7812 195.484 16.0938C195.672 17.3906 195.766 18.6641 195.766 19.9141C195.766 21.1641 195.68 22.4375 195.508 23.7344C195.336 25.0156 195.055 26.2656 194.664 27.4844C194.289 28.6875 193.797 29.8281 193.188 30.9062C192.594 31.9688 191.867 32.8984 191.008 33.6953C190.148 34.4922 189.156 35.125 188.031 35.5938C186.906 36.0469 185.625 36.2734 184.188 36.2734ZM184.188 37.9609C185.266 37.9609 186.43 37.8516 187.68 37.6328C188.93 37.4141 190.172 37.0391 191.406 36.5078C192.656 35.9766 193.859 35.2656 195.016 34.375C196.172 33.4844 197.188 32.375 198.062 31.0469C198.953 29.7031 199.664 28.1172 200.195 26.2891C200.727 24.4453 200.992 22.3203 200.992 19.9141C200.992 17.5547 200.727 15.4688 200.195 13.6562C199.68 11.8281 198.984 10.2422 198.109 8.89844C197.234 7.55469 196.227 6.42969 195.086 5.52344C193.945 4.61719 192.75 3.89062 191.5 3.34375C190.25 2.78125 188.992 2.38281 187.727 2.14844C186.477 1.89844 185.297 1.77344 184.188 1.77344C183.109 1.77344 181.922 1.88281 180.625 2.10156C179.328 2.30469 178.023 2.67188 176.711 3.20312C175.398 3.71875 174.125 4.42188 172.891 5.3125C171.656 6.20312 170.562 7.32031 169.609 8.66406C168.656 10.0078 167.891 11.6094 167.312 13.4688C166.734 15.3125 166.445 17.4609 166.445 19.9141C166.445 22.2891 166.719 24.3828 167.266 26.1953C167.828 28.0078 168.57 29.5859 169.492 30.9297C170.414 32.2578 171.477 33.375 172.68 34.2812C173.898 35.1719 175.164 35.8906 176.477 36.4375C177.789 36.9844 179.109 37.375 180.438 37.6094C181.766 37.8438 183.016 37.9609 184.188 37.9609ZM185.008 39.0156C181.867 39.0156 179.086 38.5547 176.664 37.6328C174.242 36.7266 172.203 35.4453 170.547 33.7891C168.891 32.1172 167.633 30.1094 166.773 27.7656C165.914 25.4062 165.484 22.7891 165.484 19.9141C165.484 17.0391 165.914 14.4297 166.773 12.0859C167.633 9.72656 168.891 7.71875 170.547 6.0625C172.203 4.39062 174.242 3.10156 176.664 2.19531C179.086 1.27344 181.867 0.8125 185.008 0.8125C187.961 0.8125 190.641 1.23438 193.047 2.07812C195.469 2.92188 197.531 4.15625 199.234 5.78125C200.953 7.39062 202.273 9.38281 203.195 11.7578C204.133 14.1328 204.602 16.8516 204.602 19.9141C204.602 22.9922 204.133 25.7188 203.195 28.0938C202.273 30.4531 200.953 32.4453 199.234 34.0703C197.531 35.6953 195.469 36.9219 193.047 37.75C190.641 38.5938 187.961 39.0156 185.008 39.0156Z" fill="black"/>
</svg>
