<svg width="150" height="150" viewBox="0 0 150 150" fill="none" xmlns="http://www.w3.org/2000/svg">
<g clip-path="url(#clip0_2_53)">
<path d="M145.578 29.4372C144.839 29.6533 144.099 29.8544 143.36 30.0417C138.84 31.1831 138.424 29.677 141.697 26.3541C143.162 24.8651 144.457 23.2456 145.582 21.4964C148.103 17.574 145.916 15.8635 141.627 17.6957C140.098 18.3493 138.542 18.9419 136.966 19.4702C132.547 20.9543 126.276 18.7157 122.338 16.2183C117.367 13.0659 111.718 11.4905 105.388 11.4905C96.5213 11.4905 88.9639 14.6175 82.7113 20.8665C76.4606 27.1189 73.3336 34.6784 73.3336 43.5427C73.3336 44.755 73.4029 45.9857 73.5397 47.2336C73.7643 49.2647 70.3434 50.7372 65.7272 50.0853C55.7414 48.6754 46.2539 45.6497 37.2627 41.0113C28.3458 36.4119 20.4759 30.6239 13.6544 23.647C10.3936 20.3125 5.98336 20.5998 4.76583 25.101C4.03636 27.7992 3.67356 30.6054 3.67356 33.5199C3.67356 39.0125 4.96337 44.1066 7.54355 48.8023C8.82674 51.1392 10.3295 53.2547 12.0553 55.1477C14.958 58.334 14.5138 60.1828 10.4733 59.0499C6.43445 57.9171 3.47464 56.2352 3.47464 56.345C3.47464 56.4549 3.47464 56.5442 3.47464 56.5442C3.47464 64.2826 5.90445 71.082 10.7671 76.936C13.7625 80.5425 17.2424 83.3285 21.2053 85.2906C25.3843 87.3607 27.3311 88.5153 24.9942 88.8177C23.5844 89 22.166 89.0911 20.7394 89.0911C19.7737 89.0911 18.7606 89.0472 17.7037 88.9578C16.032 88.816 15.7316 92.2992 18.266 96.2133C20.2803 99.3235 22.8585 102.06 25.9993 104.425C29.1939 106.831 32.6368 108.558 36.3225 109.61C40.8072 110.888 41.7071 113.216 37.7086 115.614C27.8141 121.551 16.8644 124.519 4.86102 124.519C3.50858 124.519 2.21849 124.489 0.986063 124.43C-1.15323 124.327 0.281977 126.211 4.41186 128.374C17.3169 135.133 31.2924 138.51 46.3403 138.51C57.7174 138.51 68.402 136.708 78.3927 133.103C88.3799 129.498 96.9152 124.668 103.993 118.614C111.071 112.561 117.175 105.6 122.303 97.7261C127.43 89.8528 131.249 81.6331 133.765 73.0676C136.277 64.5002 137.535 55.916 137.535 47.315C137.535 46.54 137.528 45.8442 137.517 45.2314C137.493 44.0798 140.539 40.9628 143.939 37.7734C145.474 36.3332 146.938 34.8219 148.336 33.2366C151.421 29.736 150.055 28.132 145.578 29.4372Z" fill="#FBFFFC"/>
</g>
<defs>
<clipPath id="clip0_2_53">
<rect width="150" height="150" fill="white"/>
</clipPath>
</defs>
</svg>
