<svg width="150" height="150" viewBox="0 0 150 150" fill="none" xmlns="http://www.w3.org/2000/svg">
<path d="M144.153 31.2798C138.739 24.8434 128.742 22.2179 109.65 22.2179H40.3481C20.8195 22.2179 10.6534 25.0127 5.25919 31.8653C0 38.5466 0 48.391 0 62.0158V87.9847C0 114.38 6.24 127.782 40.3481 127.782H109.651C126.207 127.782 135.381 125.465 141.316 119.785C147.403 113.96 150 104.45 150 87.9847V62.0158C150 47.6473 149.593 37.7448 144.153 31.2798ZM96.3005 78.5855L64.8305 95.0327C64.1269 95.4005 63.3576 95.5829 62.5892 95.5829C61.7192 95.5829 60.8511 95.3487 60.0823 94.8832C58.6345 94.006 57.7505 92.4368 57.7505 90.7442V57.9552C57.7505 56.2655 58.6321 54.6977 60.0769 53.82C61.5223 52.9422 63.3198 52.8823 64.8194 53.6613L96.2894 70.0026C97.8905 70.8339 98.896 72.4868 98.8984 74.2902C98.9003 76.095 97.8992 77.7503 96.3005 78.5855Z" fill="#FBFFFC"/>
</svg>
